<svg width="19" height="19" viewBox="0 0 19 19" fill="none" xmlns="http://www.w3.org/2000/svg">
<path d="M7.20092 12.9511C7.91505 13.8329 8.83865 14.3119 9.87425 14.5757C10.4364 14.7191 11.891 14.474 12.2652 14.803C13.0536 15.5174 13.9582 15.9694 14.9629 16.1974C15.0543 16.2179 15.148 16.231 15.2406 16.2453C15.3579 16.2638 15.4539 16.2289 15.5141 16.1108C15.5739 15.9927 15.5521 15.8853 15.4775 15.7876C15.3906 15.6744 15.3023 15.5621 15.2075 15.4579C14.932 15.1566 14.7139 14.8021 14.5632 14.4148C14.4551 14.1371 14.5758 13.8361 14.8122 13.6545C14.8621 13.6161 14.9115 13.5769 14.9599 13.5364C15.412 13.162 15.7875 12.7141 16.0176 12.1449C16.3912 11.222 16.3071 10.3312 15.8172 9.48425C15.4332 8.82013 14.9085 8.34403 14.2938 8M4.04007 9.03642C4.08851 9.07692 4.13787 9.11607 4.18782 9.15447C4.42418 9.33605 4.54488 9.6371 4.43679 9.91482C4.2861 10.3021 4.06795 10.6566 3.79253 10.9579C3.6977 11.0621 3.60933 11.1745 3.5225 11.2876C3.44784 11.3853 3.42614 11.4927 3.48594 11.6108C3.54611 11.7289 3.64209 11.7638 3.75939 11.7454C3.85195 11.731 3.94564 11.7179 4.03705 11.6974C5.04181 11.4694 5.94634 11.0174 6.73473 10.3029C7.10897 9.974 8.56355 10.2191 9.12575 10.0757C10.1613 9.81193 11.085 9.3329 11.799 8.45113C12.6804 7.36262 12.7364 5.89436 11.9343 4.74592C11.3748 3.94573 10.62 3.44414 9.75387 3.13161C8.27337 2.5972 6.79223 2.62591 5.32814 3.20626C4.44487 3.5561 3.69078 4.10573 3.18271 4.98425C2.69291 5.83125 2.60875 6.72202 2.98238 7.64484C3.21245 8.21413 3.58799 8.66202 4.04007 9.03642Z" stroke="#333333" stroke-width="1.25" stroke-linecap="round"/>
</svg>
