<svg width="19" height="19" viewBox="0 0 19 19" fill="none" xmlns="http://www.w3.org/2000/svg">
<path d="M4.2078 12.6819L5.26846 13.7425M5.90486 10.9848L6.96552 12.0454M7.60191 9.28777L8.66255 10.3484M9.299 7.59069L10.3596 8.65132M10.996 5.89363L12.0567 6.95429M12.693 4.19657L13.7538 5.25724M3.40687 12.9416L12.9528 3.39564C13.5386 2.80985 14.4883 2.80985 15.0741 3.39564L15.6045 3.92597C16.1902 4.51176 16.1902 5.46151 15.6045 6.04729L6.05852 15.5932C5.47273 16.179 4.52298 16.179 3.9372 15.5932L3.40687 15.0629C2.82108 14.4771 2.82108 13.5274 3.40687 12.9416Z" stroke="#333333" stroke-width="1.25" stroke-linecap="round"/>
</svg>
