<svg width="19" height="19" viewBox="0 0 19 19" fill="none" xmlns="http://www.w3.org/2000/svg">
<path d="M15.3251 5.50116C15.1779 5.2628 14.9363 5.08824 14.6532 5.01706C14.3694 4.94587 14.0677 4.98331 13.8138 5.12095C13.3917 5.34926 12.8829 5.349 12.4612 5.12026L12.0241 4.88325C11.6285 4.66869 11.3821 4.25475 11.3821 3.80469C11.3821 3.23094 10.8882 2.75 10.2775 2.75H8.7224C8.11167 2.75 7.61778 3.23094 7.61778 3.80469C7.61778 4.25478 7.37145 4.66877 6.97587 4.88348L6.53934 5.12043C6.11756 5.34936 5.60864 5.34955 5.18669 5.12095C4.93274 4.98331 4.63046 4.94586 4.34673 5.01706C4.06356 5.08825 3.82197 5.2628 3.67476 5.50116L2.89829 6.76467C2.75165 7.00303 2.71175 7.28674 2.7876 7.55252C2.86345 7.81884 3.04886 8.0456 3.30282 8.18322C3.71832 8.40875 3.97712 8.8436 3.97726 9.31633L3.97737 9.68367C3.97751 10.1564 3.71884 10.5913 3.30338 10.8168C3.04942 10.9549 2.86344 11.1812 2.7876 11.4469C2.71176 11.7132 2.75164 11.997 2.89829 12.2353L3.67588 13.4989C3.82251 13.7372 4.06411 13.9117 4.3473 13.983C4.63104 14.0542 4.93274 14.0167 5.18725 13.879C5.60926 13.6507 6.11802 13.651 6.53979 13.8798L6.97528 14.116C7.37119 14.3307 7.61777 14.7449 7.61777 15.1953C7.61777 15.7691 8.1116 16.25 8.7224 16.25H10.2771C10.8883 16.25 11.3817 15.7691 11.3817 15.1953C11.382 14.7449 11.6288 14.3307 12.0247 14.116L12.4607 13.8797C12.8825 13.6509 13.3913 13.6507 13.8133 13.879C14.0678 14.0166 14.3695 14.0542 14.6527 13.983C14.9364 13.9117 15.178 13.7372 15.3246 13.4989L16.1017 12.2353C16.2483 11.997 16.2882 11.7132 16.2124 11.4474C16.1365 11.1812 15.9511 10.9544 15.6972 10.8168C15.2817 10.5913 15.023 10.1564 15.023 9.68367V9.31633C15.023 8.8436 15.2817 8.40875 15.6972 8.18322C15.9511 8.04507 16.1365 7.81882 16.2124 7.55304C16.2882 7.28672 16.2483 7.00302 16.1017 6.76466L15.3251 5.50116Z" stroke="black" stroke-width="1.25" stroke-linecap="round"/>
<path d="M11.75 9.5C11.75 10.7427 10.7427 11.75 9.5 11.75C8.25732 11.75 7.25 10.7427 7.25 9.5C7.25 8.25732 8.25732 7.25 9.5 7.25C10.7427 7.25 11.75 8.25732 11.75 9.5Z" stroke="black" stroke-width="1.25" stroke-linecap="round"/>
</svg>
